#N canvas 551 114 548 355 10;
#X obj 90 292 dac~;
#N canvas 353 391 450 300 kick 0;
#X obj 155 46 bng 24 250 50 0 empty empty empty 17 7 0 10 #00fc04 #000000 #000000;
#X msg 155 75 0 \, 1 200;
#X obj 155 104 line~;
#X obj 155 212 -~ 0.25;
#X obj 155 241 cos~;
#X obj 155 172 *~ 20;
#X obj 155 138 sqrt~;
#X obj 119 9 inlet;
#X obj 156 306 outlet~;
#X obj 155 275 lop~ 200;
#X connect 0 0 1 0;
#X connect 1 0 2 0;
#X connect 2 0 6 0;
#X connect 3 0 4 0;
#X connect 4 0 9 0;
#X connect 5 0 3 0;
#X connect 6 0 5 0;
#X connect 7 0 0 0;
#X connect 9 0 8 0;
#X restore 92 216 pd kick;
#X obj 92 138 metro 1000;
#X obj 92 99 tgl 16 0 empty empty empty 0 -8 0 10 #fcfcfc #000000 #000000 0 1;
#X obj 94 32 loadbang;
#X msg 92 74 1;
#X msg 250 79 \; pd dsp 1;
#X obj 234 214 osc~ 400;
#X obj 329 115 osc~ 1;
#X obj 309 146 *~ 200;
#X obj 307 170 +~ 500;
#X obj 222 244 *~ 0.1;
#X connect 1 0 0 0;
#X connect 1 0 0 1;
#X connect 2 0 1 0;
#X connect 3 0 2 0;
#X connect 4 0 5 0;
#X connect 4 0 6 0;
#X connect 5 0 3 0;
#X connect 7 0 11 0;
#X connect 8 0 9 0;
#X connect 9 0 10 0;
#X connect 10 0 7 0;
#X connect 11 0 0 1;
#X connect 11 0 0 0;
